<svg width="17" height="24" viewBox="0 0 17 24" fill="none" xmlns="http://www.w3.org/2000/svg">
<path d="M14.6784 7.33125C14.4493 7.02719 13.5984 6.81781 13.2384 6.27063C12.8784 5.72344 12.5837 4.53844 11.6674 4.08313C10.7512 3.62781 8.99992 3.5 7.99992 3.5C6.99992 3.5 5.24992 3.625 4.33242 4.08219C3.41492 4.53938 3.12148 5.72344 2.76148 6.26969C2.40148 6.81594 1.55055 7.02719 1.32148 7.33125C1.09242 7.63531 0.931172 9.5575 1.0293 10.5C1.12742 11.4425 1.31055 12 1.31055 12H3.99805C4.43805 12 4.58117 11.8347 5.48117 11.75C6.46867 11.6562 7.43742 11.625 7.99992 11.625C8.56242 11.625 9.56242 11.6562 10.5493 11.75C11.4493 11.8353 11.5971 12 12.0324 12H14.6887C14.6887 12 14.8718 11.4425 14.9699 10.5C15.068 9.5575 14.9062 7.63531 14.6784 7.33125ZM12.4999 12H14.2499V12.5H12.4999V12ZM1.74992 12H3.49992V12.5H1.74992V12Z" stroke="black" stroke-linecap="round" stroke-linejoin="round"/>
<path d="M11.3898 9.66125C11.2051 9.44781 10.6032 9.26969 9.80633 9.15031C9.00946 9.03094 8.71883 9 8.00633 9C7.29383 9 6.96977 9.05125 6.20602 9.15031C5.44227 9.24937 4.86883 9.42562 4.6229 9.66125C4.25383 10.0187 4.79446 10.42 5.21883 10.4687C5.63008 10.5156 6.45227 10.4984 8.00977 10.4984C9.56727 10.4984 10.3895 10.5156 10.8007 10.4687C11.2245 10.4172 11.7263 10.0437 11.3898 9.66125ZM13.4866 7.59531C13.4849 7.57049 13.474 7.54719 13.4562 7.52989C13.4383 7.51259 13.4146 7.5025 13.3898 7.50156C13.0207 7.48844 12.646 7.51469 11.9813 7.71062C11.6422 7.80964 11.3238 7.96907 11.0413 8.18125C10.9701 8.23687 10.9954 8.38719 11.0848 8.40312C11.6326 8.46741 12.1838 8.49975 12.7354 8.5C13.0663 8.5 13.4079 8.40625 13.4713 8.11125C13.5037 7.94116 13.5089 7.76702 13.4866 7.59531ZM2.51352 7.59531C2.51528 7.57049 2.52613 7.54719 2.54401 7.52989C2.56189 7.51259 2.58553 7.5025 2.6104 7.50156C2.97946 7.48844 3.35415 7.51469 4.01883 7.71062C4.35794 7.80964 4.67638 7.96907 4.95883 8.18125C5.03008 8.23687 5.00477 8.38719 4.9154 8.40312C4.36753 8.46741 3.81639 8.49975 3.26477 8.5C2.93383 8.5 2.59227 8.40625 2.52883 8.11125C2.49649 7.94116 2.49132 7.76702 2.51352 7.59531Z" fill="black"/>
<path d="M13.5 6H14M2 6H2.5M2.4375 6.59375C2.4375 6.59375 3.88594 6.21875 8 6.21875C12.1141 6.21875 13.5625 6.59375 13.5625 6.59375" stroke="black" stroke-linecap="round" stroke-linejoin="round"/>
</svg>
