<?xml version="1.0" encoding="iso-8859-1"?>
<!-- Uploaded to: SVG Repo, www.svgrepo.com, Generator: SVG Repo Mixer Tools -->
<!DOCTYPE svg PUBLIC "-//W3C//DTD SVG 1.1//EN" "http://www.w3.org/Graphics/SVG/1.1/DTD/svg11.dtd">
<svg fill="#000000" version="1.1" id="Capa_1" xmlns="http://www.w3.org/2000/svg" xmlns:xlink="http://www.w3.org/1999/xlink" 
	 width="800px" height="800px" viewBox="0 0 967.091 967.09"
	 xml:space="preserve">
<g>
	<g>
		<path d="M745.409,1.288L356.637,480.109l-135.74-110.211L0,641.959l398.855,323.844l220.896-272.061L484.011,583.53
			l150.957-185.922l94.309,76.571l110.445-136.028l-94.308-76.571l16.924-20.845l94.309,76.572l110.444-136.028L745.409,1.288z
			 M528.319,703.231L389.366,874.372L91.433,632.469L230.387,461.33l85.279,69.241l63.688,51.711L528.319,703.231z M704.443,312.042
			l43.846,35.6l-28.503,35.105l-43.846-35.6l5.62-6.922L704.443,312.042z M847.156,225.875l-94.309-76.572L433.55,542.559
			l-13.226-10.74l-13.227-10.738L754.899,92.72l120.76,98.049L847.156,225.875z"/>
		<path d="M141.95,634.792l234.768,190.617l101.084-124.5L243.035,510.293L141.95,634.792z M386.37,710.399l-19.142,23.576
			L233.383,625.301l19.142-23.576L386.37,710.399z"/>
	</g>
</g>
</svg>